<svg width="53" height="61" viewBox="0 0 53 61" fill="none" xmlns="http://www.w3.org/2000/svg">
<path d="M14.5848 16.7076C16.3006 16.7076 17.6916 15.3209 17.6916 13.6102C17.6916 11.8995 16.3006 10.5127 14.5848 10.5127C12.8689 10.5127 11.4779 11.8995 11.4779 13.6102C11.4779 15.3209 12.8689 16.7076 14.5848 16.7076Z" fill="#19191A"/>
<path d="M52.3166 21.6568C51.3869 15.2684 48.5935 9.81965 43.6784 5.89944C39.7379 2.7552 34.6181 0.65904 29.6306 0.148817C28.6625 0.0488989 27.6752 0 26.6965 0C22.8753 0 18.9966 0.77809 15.4782 2.25348C10.7764 4.22209 6.91473 7.3387 4.30901 11.2632C-0.746778 18.8761 -1.40994 28.8956 2.61806 36.7892C2.86541 37.276 3.13622 37.7607 3.41768 38.2284C5.78245 42.1486 9.17288 44.7146 12.1752 46.7066L12.2882 46.781L12.252 58.5416L15.4462 60L28.2488 49.0217L25.835 46.224L15.9644 54.6873L15.9921 45.7903C15.9921 45.1589 15.6765 44.5764 15.1434 44.2341C11.9364 42.1741 8.67817 39.791 6.58848 36.3278C6.35179 35.9345 6.12576 35.5264 5.91679 35.1182C2.48372 28.3896 3.06372 19.8264 7.39664 13.3019C11.2732 7.46625 18.8601 3.69486 26.7242 3.69486C27.5686 3.69486 28.4194 3.73738 29.2531 3.82242C35.6715 4.47933 46.749 9.08834 48.6553 22.1904C49.5466 28.3258 47.1008 34.7334 41.7956 38.9108C40.2155 40.1545 38.032 41.2217 35.9338 40.6052C33.7844 39.9717 32.9997 38.0179 33.0359 35.9728C33.0636 34.3826 33.4858 32.786 33.827 31.2405C34.6352 27.5711 34.7077 26.438 34.6075 25.7003C34.0594 21.6632 29.6711 19.2524 24.3509 22.7835C24.3445 22.7878 24.336 22.7942 24.3274 22.7984C23.3956 21.036 21.4466 18.4615 20.1566 16.7884C19.5382 17.8663 18.6128 18.7464 17.5018 19.314C18.9113 21.1423 19.7301 21.9608 21.5127 25.2624C21.5085 25.2666 21.5042 25.2709 21.5021 25.2751C20.7643 26.117 20.1395 27.0375 19.6853 27.9836C19.2034 28.9891 18.617 30.3922 18.2567 31.8868C18.2503 31.9187 18.2417 31.9505 18.2353 31.9824C17.8302 33.7151 17.7428 35.5582 18.4955 37.0273C19.116 38.239 20.1971 39.0192 21.6215 39.2807C23.7581 39.6719 25.5578 38.9023 26.5664 37.1697C27.9865 34.7313 27.6112 30.6112 25.8776 26.1702C26.6773 25.5685 27.5302 25.1029 28.332 24.867C31.9271 23.8061 31.0123 27.012 29.9568 31.6168C29.831 32.1674 29.7372 32.6776 29.6476 33.1559C28.5879 38.813 29.9056 43.1924 34.9294 44.5424C36.0319 44.8379 37.1983 44.8974 38.3241 44.7061C40.4735 44.3404 42.4033 43.135 44.0878 41.8085C50.4273 36.8168 53.3977 29.0976 52.3166 21.6632V21.6568ZM22.5064 35.7368C21.8923 35.7368 21.4573 35.1607 21.404 34.474C21.2995 33.1198 22.419 30.0287 23.1035 29.2974C23.1888 29.5801 24.8882 35.7368 22.5043 35.7368H22.5064Z" fill="#19191A"/>
</svg>
